/* XPM */
static char * codepilot_r_xpm[] = {
"24 24 6 1",
" 	c None",
".	c #0099FF",
"+	c #5EBFFF",
"@	c #FFFFFF",
"#	c #CCFFCC",
"$	c #E6FFE6",
" ...................... ",
".++++++++++++++++++++++.",
".+....................+.",
".+....................+.",
".+....................+.",
".+....................+.",
".+....................+.",
".+......@@@@@@........+.",
".+.......#@..@@.......+.",
".+.......$@..@@.......+.",
".+.......#@##@........+.",
".+.......#@@@.........+.",
".+.......#@.#@........+.",
".+.......#@.#@........+.",
".+.......#@..#@.......+.",
".+......@$@@.#@@......+.",
".+....................+.",
".+....................+.",
".+....................+.",
".+....................+.",
".+....................+.",
".+....................+.",
".++++++++++++++++++++++.",
" ...................... "};
