/* XPM */ 
static const unsigned char * codepilot_d_xpm[] = {
"24 24 7 1",
" 	c None",
"!	c black",
"#	c #0099FF",
"$	c #5EBFFF",
"%	c white",
"&	c #E6FFE6",
"'	c #CCFFCC",
" ###################### ",
"#$$$$$$$$$$$$$$$$$$$$$$#",
"#$####################$#",
"#$####################$#",
"#$####################$#",
"#$####################$#",
"#$####################$#",
"#$######%%%%%#########$#",
"#$#######&%#%%########$#",
"#$#######'%##&%#######$#",
"#$#######'%##'%#######$#",
"#$#######'%##'%#######$#",
"#$#######'%##'%#######$#",
"#$#######'%##&%#######$#",
"#$#######'%#%%########$#",
"#$######%&%%%#########$#",
"#$####################$#",
"#$####################$#",
"#$####################$#",
"#$####################$#",
"#$####################$#",
"#$####################$#",
"#$$$$$$$$$$$$$$$$$$$$$$#",
" ###################### "};