/* XPM */ 
static const unsigned char * codepilot_i_xpm[] = {
"24 24 14 1",
" 	c None",
"!	c black",
"#	c #0099FF",
"$	c #5EBFFF",
"%	c white",
"&	c #E6FFE6",
"'	c #D3FFD3",
"(	c #FDFFFD",
")	c #DDFFDD",
"*	c #F8FFF8",
"+	c #E7FFE7",
",	c #F0FFF0",
"-	c #E3FFE3",
".	c #E5FFE5",
" ###################### ",
"#$$$$$$$$$$$$$$$$$$$$$$#",
"#$####################$#",
"#$####################$#",
"#$####################$#",
"#$####################$#",
"#$####################$#",
"#$#######%%%%%%#######$#",
"#$#########&%#########$#",
"#$#########'(#########$#",
"#$#########)*#########$#",
"#$#########+,#########$#",
"#$#########,+#########$#",
"#$#########-)#########$#",
"#$#########.'#########$#",
"#$#######%%%&%%#######$#",
"#$####################$#",
"#$####################$#",
"#$####################$#",
"#$####################$#",
"#$####################$#",
"#$####################$#",
"#$$$$$$$$$$$$$$$$$$$$$$#",
" ###################### "};