/* XPM */
static char * CodePilot_xpm[] = {
"32 32 5 1",
" 	c None",
".	c #FFFFFF",
"+	c #808080",
"@	c #000000",
"#	c #FF0000",
"             .....              ",
"            ..+@+..             ",
"            ..@@@..             ",
"            ..@@@+.             ",
"    ....    .+@@@+. .....       ",
"   ..###..  .+@@@+. .##..       ",
"  ..##.##......@@+...##........ ",
"  .##......####.@+#####..####.. ",
"  .##.   .##..##.##..##..#..##. ",
"  .##.   .##..##.##..##.######. ",
"  .##.....##..##.##..##.##..... ",
"  ..##.##.##..##.##..##.##...#. ",
"   ..###...####.@.#####..####.. ",
"    .....@@....@@@............. ",
"      ..@@@@@@@@@@@@@@@..       ",
"     ....@.......@@@@@@....     ",
"     .###..##.##.@@@@@@.##.     ",
"   ..##.##....##.@....@.##..    ",
"  ...##.##.##.##..####.####..   ",
" ..@.####..##.##.##..##.##....  ",
" .@@.##..@.##.##.##..##.##.@@.. ",
" ....##....##.##.##..##.##..... ",
"    .##.  .##.##.##..##.##.     ",
"    .##.  .##.##..####..##.     ",
"    ....  .................     ",
"           ..@@@@@..            ",
"          ..@@@@@@@..           ",
"         ..@@@@@@@@@..          ",
"        ..@@@@@@@@@@@..         ",
"       ..@@@+++@+++@@@.         ",
"       ........@........        ",
"              ...               "};
