/* XPM */
static char * d2_xpm[] = {
"24 24 125 2",
"  	c None",
". 	c #000000",
"+ 	c #D3D3D3",
"@ 	c #F6F6F6",
"# 	c #FFFFFF",
"$ 	c #F9F9F9",
"% 	c #DADADA",
"& 	c #585858",
"* 	c #C7C7C7",
"= 	c #D1D1D1",
"- 	c #D6D6D6",
"; 	c #FEFEFE",
"> 	c #FDFDFD",
", 	c #C0C0C0",
"' 	c #E1E1E1",
") 	c #F0F0F0",
"! 	c #9B9B9B",
"~ 	c #FCFCFB",
"{ 	c #FBFBFB",
"] 	c #AFAFAE",
"^ 	c #E9E9E9",
"/ 	c #DFDFDF",
"( 	c #8F8F8F",
"_ 	c #FAFAF9",
": 	c #F9F9F8",
"< 	c #A4A4A3",
"[ 	c #F4F4F4",
"} 	c #CFCFCF",
"| 	c #A2A2A2",
"1 	c #F8F8F7",
"2 	c #F8F7F6",
"3 	c #9E9E9E",
"4 	c #A49E93",
"5 	c #F6F6F4",
"6 	c #F4F3F2",
"7 	c #DEDDDC",
"8 	c #D3D2D0",
"9 	c #B7B7B5",
"0 	c #9F9E9D",
"a 	c #706F6F",
"b 	c #65625A",
"c 	c #F7F6F5",
"d 	c #F5F4F3",
"e 	c #F2F2F0",
"f 	c #E4E4E2",
"g 	c #DAD9D7",
"h 	c #D8D8D6",
"i 	c #CDCCCA",
"j 	c #AFAEAC",
"k 	c #88847B",
"l 	c #F3F3F1",
"m 	c #EEEDEB",
"n 	c #EDECEA",
"o 	c #E9E8E6",
"p 	c #D5D4D3",
"q 	c #C4C3C2",
"r 	c #8F8A81",
"s 	c #F6F5F4",
"t 	c #F5F5F3",
"u 	c #F1F1EF",
"v 	c #ECEBE9",
"w 	c #EAE9E7",
"x 	c #E5E4E2",
"y 	c #E4E3E0",
"z 	c #D2D1CE",
"A 	c #8D887E",
"B 	c #F3F2F1",
"C 	c #F0F0EE",
"D 	c #EFEFED",
"E 	c #F1F0EE",
"F 	c #F0EFED",
"G 	c #E8E7E5",
"H 	c #E5E4E1",
"I 	c #E2E1DE",
"J 	c #E1DFDC",
"K 	c #979288",
"L 	c #EFEEEC",
"M 	c #E7E6E3",
"N 	c #E3E2DF",
"O 	c #E2E0DD",
"P 	c #E1E0DC",
"Q 	c #E0DFDB",
"R 	c #A19C90",
"S 	c #EDEDEB",
"T 	c #E6E4E1",
"U 	c #E3E2DE",
"V 	c #DFDEDA",
"W 	c #DEDDD9",
"X 	c #DDDCD8",
"Y 	c #A19B90",
"Z 	c #EBEAE8",
"` 	c #E7E5E2",
" .	c #E4E3DF",
"..	c #DCDBD7",
"+.	c #E6E5E2",
"@.	c #E5E4E0",
"#.	c #E2E1DD",
"$.	c #DBD9D5",
"%.	c #D9D7D3",
"&.	c #9F998D",
"*.	c #E4E2DF",
"=.	c #DDDBD7",
"-.	c #DCDAD6",
";.	c #D8D6D2",
">.	c #9E988D",
",.	c #EDEDED",
"'.	c #E1E0DD",
").	c #E0DEDA",
"!.	c #D8D6D1",
"~.	c #D7D5D1",
"{.	c #9D978B",
"].	c #E1DFDB",
"^.	c #DEDCD8",
"/.	c #D7D6D1",
"(.	c #D5D3CE",
"_.	c #9B958A",
":.	c #999891",
"<.	c #A39E92",
"[.	c #A39D92",
"}.	c #A39D91",
"|.	c #A29C90",
"1.	c #A19B8F",
"2.	c #9D978C",
"3.	c #9B968A",
"4.	c #676359",
"                                                ",
"      . . . . . . . . . . . . .                 ",
"    . + @ # # # # # # # # $ % & .               ",
"    . @ # # # # # # # # # # * = - .             ",
"    . # # # # # # # ; # ; > , ' ) ! .           ",
"    . # # # # # ; > ~ > ~ { ] ^ # / ( .         ",
"    . # # # ; > ~ { _ { _ : < ) # [ } | .       ",
"    . # ; > ~ { _ : 1 : 1 2 3 . . . . . . .     ",
"    . # ~ { _ : 4 . . . . 5 6 7 8 9 0 a b .     ",
"    . # _ : 1 2 c 4 . 5 d . e f g h i j k .     ",
"    . # 1 2 c 5 d 4 . 6 l 4 . m n o p q r .     ",
"    . # s t 6 6 l 4 . e u 4 . v w x y z A .     ",
"    . # 6 B e C D 4 . E F 4 . G H y I J K .     ",
"    . # 6 B e C D 4 . E F 4 . G H y I J 4 .     ",
"    . # C D D L m 4 . n 4 4 . M N O P Q R .     ",
"    . # S n v v 4 4 . 4 4 . H T U V W X Y .     ",
"    . # Z o o G 4 . . . . `  .U Q W X ..Y .     ",
"    . # M +.+.+.H T @.T @. .#.Q W ..$.%.&..     ",
"    . $ y N U *. .#.U #.U P P W =.-.%.;.>..     ",
"    . ,.'.J P Q #.Q P Q P V ).=.-.%.!.~.{..     ",
"    . = ].).V W Q W ).W ).^.^.-.-.;./.(._..     ",
"    . :.<.4 [.}.[.R |.R |.1.Y &.&.2.2.3.4..     ",
"      . . . . . . . . . . . . . . . . . .       ",
"                                                "};
