/* XPM */ 
static const unsigned char * del_win_2_xpm[] = {
"24 24 114 2",
"  	c None",
"! 	c black",
"# 	c #0000FF",
"$ 	c white",
"% 	c #0B0BFF",
"& 	c #0202FF",
"' 	c #0909FF",
"( 	c #2323FF",
") 	c #2424FF",
"* 	c #2D2DFF",
"+ 	c #3737FF",
", 	c #4141FF",
"- 	c #4D4DFF",
". 	c #5959FF",
"0 	c #6767FF",
"1 	c #7676FF",
"2 	c #1919FF",
"3 	c #2222FF",
"4 	c #2A2AFF",
"5 	c #3434FF",
"6 	c #3E3EFF",
"7 	c #4A4AFF",
"8 	c #5656FF",
"9 	c #6464FF",
": 	c #7373FF",
"; 	c #1717FF",
"< 	c #2020FF",
"= 	c #2828FF",
"> 	c #3232FF",
"? 	c #3C3CFF",
"@ 	c #4848FF",
"A 	c #5555FF",
"B 	c #6262FF",
"C 	c #7171FF",
"D 	c #1111FF",
"E 	c #1C1CFF",
"F 	c #3838FF",
"G 	c #4545FF",
"H 	c #5353FF",
"I 	c #6363FF",
"J 	c #0C0CFF",
"K 	c #1010FF",
"L 	c #1616FF",
"M 	c #1E1EFF",
"N 	c #2727FF",
"O 	c #4C4CFF",
"P 	c #5C5CFF",
"Q 	c #0F0FFF",
"R 	c #1414FF",
"S 	c #3636FF",
"T 	c #2F2FFF",
"U 	c #3D3DFF",
"V 	c #4E4EFF",
"W 	c #4747FF",
"X 	c #0404FF",
"Y 	c #0707FF",
"Z 	c #4949FF",
"[ 	c #4B4BFF",
"] 	c #0101FF",
"^ 	c #1B1BFF",
"_ 	c #3535FF",
"` 	c #4646FF",
"a 	c #3F3FFF",
"b 	c #1A1AFF",
"c 	c #2626FF",
"d 	c #1818FF",
"e 	c #1313FF",
"f 	c #0E0EFF",
"g 	c #0A0AFF",
"h 	c #0808FF",
"i 	c #0505FF",
"j 	c #1212FF",
"k 	c #0606FF",
"l 	c #2C2CFF",
"m 	c #3A3AFF",
"n 	c #0D0DFF",
"o 	c #1515FF",
"p 	c #5252FF",
"q 	c #3333FF",
"r 	c #3131FF",
"s 	c #2525FF",
"t 	c #3B3BFF",
"u 	c #5A5AFF",
"v 	c #2E2EFF",
"w 	c #2929FF",
"x 	c #3030FF",
"y 	c #5454FF",
"z 	c #6565FF",
"{ 	c #5151FF",
"| 	c #4040FF",
"} 	c #3939FF",
"~ 	c #7272FF",
" !	c #5D5DFF",
"!!	c #4343FF",
"#!	c #5757FF",
"$!	c #8282FF",
"%!	c #6B6BFF",
"&!	c #5B5BFF",
"'!	c #5050FF",
"(!	c #4F4FFF",
")!	c #5F5FFF",
"*!	c #6969FF",
"+!	c #7575FF",
",!	c #8383FF",
"-!	c #9494FF",
".!	c #7070FF",
"0!	c #6E6EFF",
"1!	c #6868FF",
"2!	c #6F6FFF",
"3!	c #6666FF",
"4!	c #6C6CFF",
"5!	c #7D7DFF",
"6!	c #8989FF",
"7!	c #9797FF",
"  # # # # # # # # # # # # # # # # # # # # # #   ",
"# # $ $ $ $ $ $ $ $ $ $ $ $ $ $ $ $ $ $ $ $ # # ",
"# $ $ % % % % % % % % % % & # # # # # # # $ $ # ",
"# $ % ' ' ' ' ' ' ' ' ' ' ( ) * + , - . 0 1 $ # ",
"# $ % ' ' ' ' ' ' ' ' ' ' 2 3 4 5 6 7 8 9 : $ # ",
"# $ % ' ' ' ' ' ' ' ' ' ' ; < = > ? @ A B C $ # ",
"# $ % ' ' ' ' ' ' ' ' ' ' D ; E ) * F G H I $ # ",
"# $ % ' ' ' ' ' ' ' ' ' ' J K L M N > 6 O P $ # ",
"# $ % ' ' ' ' ' ' ' ' ' ' Q D R 2 < 4 S G 8 $ # ",
"# $ D ' ' ' ' ' ' ' ' ' ' ' ' J D 2 ( T U V $ # ",
"# $ W ' ' ' ' ' ' ' ' ' ' X X Y J R M 4 F Z $ # ",
"# $ [ ' ' ' ' ' ' ' ' ' ' # ] X ' D ^ N _ ` $ # ",
"# $ a ' ' ' ' ' ' ' ' ' ' # # X ' K b c _ G $ # ",
"# $ 6 < b d ; e f g f h X & & i % j E = S W $ # ",
"# $ ? c 3 < M 2 e Q j J h k k ' Q L < l m [ $ # ",
"# $ ` T 4 = $ $ $ $ $ $ $ J n K o E c > , p $ # ",
"# $ T 5 q r $ $ $ $ $ $ $ o L d M s T t Z u $ # ",
"# $ G , 6 ? ? q v w l c 3 < < ( w x m ` y z $ # ",
"# $ { - 7 @ W | m _ } q T * v r S U W H B ~ $ # ",
"# $  !. 8 A y - W !!Z !!a U U | G - #!I C $!$ # ",
"# $ %!0 9 B B  !#!H &!y '!(!(!p #!)!*!+!,!-!$ # ",
"# $ $ 1 : C .!0!1!9 2!*!z I I 3!4!: 5!6!7!$ $ # ",
"# # $ $ $ $ $ $ $ $ $ $ $ $ $ $ $ $ $ $ $ $ # # ",
"  # # # # # # # # # # # # # # # # # # # # # #   "};