/* XPM */
static char * fcaseb_xpm[] = {
"24 24 36 1",
" 	c None",
".	c #CEEED0",
"+	c #B9D1D3",
"@	c #8F97D9",
"#	c #99A5D8",
"$	c #AEC2D5",
"%	c #C3DFD2",
"&	c #2606E8",
"*	c #3014E7",
"=	c #3A22E5",
"-	c #8488DB",
";	c #4531E4",
">	c #A4B4D6",
",	c #6F6BDE",
"'	c #5A4EE1",
")	c #503FE2",
"!	c #655CDF",
"~	c #7A7ADC",
"{	c #A4B7A6",
"]	c #C2DFC4",
"^	c #8A958B",
"/	c #787E79",
"(	c #A0B2A1",
"_	c #CAE9CC",
":	c #757A76",
"<	c #7E8680",
"[	c #AFC5B0",
"}	c #889389",
"|	c #BEDAC0",
"1	c #777D78",
"2	c #919F93",
"3	c #C1DEC3",
"4	c #869087",
"5	c #B8D1BA",
"6	c #B6CFB8",
"7	c #CDEDCF",
"........................",
"........................",
"........................",
"........................",
".+@#...$@@+..%@@$...%@+.",
"$&**=%-&;*&>+*=;&#.,*;&'",
";).%*#!~..*~>&$.!@$&-.$&",
"&-....%-'=&~%;&;~%-&)))&",
"&-..$+;=~>=~..#!*'-&#>>>",
"=)%%&@&-.$&~@&+.,=$&,.$&",
">;*&).'&=*='.;&*&@.~=*&'",
"..$+...+>++>..+>+....>+.",
"................{]......",
"................^/(_....",
"................^::<[...",
"................^::::}|.",
"................^:::1(_.",
"................^::23...",
"................^45.....",
"................67......",
"........................",
"........................",
"........................",
"........................"};
