/* XPM */ 
static const unsigned char * fcase_xpm[] = {
"24 24 51 1",
" 	c None",
"!	c #CEEED0",
"#	c #B9D1D3",
"$	c #8F97D9",
"%	c #99A5D8",
"&	c #AEC2D5",
"'	c #C3DFD2",
"(	c #2606E8",
")	c #3014E7",
"*	c #3A22E5",
"+	c #8488DB",
",	c #4531E4",
"-	c #A4B4D6",
".	c #6F6BDE",
"0	c #5A4EE1",
"1	c #503FE2",
"2	c #655CDF",
"3	c #7A7ADC",
"4	c #A0B2A1",
"5	c #C6E3C8",
"6	c #A4B7A6",
"7	c #C2DFC4",
"8	c #7F8881",
"9	c #797F7A",
":	c #A5B9A7",
";	c #CCEBCE",
"<	c #8A958B",
"=	c #787E79",
">	c #CAE9CC",
"?	c #757A76",
"@	c #828A83",
"A	c #B4CCB6",
"B	c #7E8680",
"C	c #AFC5B0",
"D	c #8E9B8F",
"E	c #7B827C",
"F	c #889389",
"G	c #BEDAC0",
"H	c #A3B6A5",
"I	c #7D857E",
"J	c #879188",
"K	c #777D78",
"L	c #98A799",
"M	c #919F93",
"N	c #C1DEC3",
"O	c #BBD5BD",
"P	c #869087",
"Q	c #B8D1BA",
"R	c #B5CDB7",
"S	c #B6CFB8",
"T	c #CDEDCF",
"!!!!!!!!!!!!!!!!!!!!!!!!",
"!!!!!!!!!!!!!!!!!!!!!!!!",
"!!!!!!!!!!!!!!!!!!!!!!!!",
"!!!!!!!!!!!!!!!!!!!!!!!!",
"!#$%!!!&$$#!!'$$&!!!'$#!",
"&())*'+(,)(-#)*,(%!.),(0",
",1!')%23!!)3-(&!2$&(+!&(",
"(+!!!!'+0*(3',(,3'+(111(",
"(+!!&#,*3-*3!!%2)0+(%---",
"*1''($(+!&(3$(#!.*&(.!&(",
"-,)(1!0(*)*0!,()($!3*)(0",
"!!&#!!!#-##-!!#-#!!!!-#!",
"!!!!45!!!!45!!!!67!!!!!!",
"!!!!89:;!!89:;!!<=4>!!!!",
"!!!!8??@A!8??@A!<??BC!!!",
"!!!!8????DE????D@????FG!",
"!!!!8???9HI???9HJ???K4>!",
"!!!!8??L5!8??L5!<??MN!!!",
"!!!!8FO!!!8FO!!!<PQ!!!!!",
"!!!!R!!!!!R!!!!!ST!!!!!!",
"!!!!!!!!!!!!!!!!!!!!!!!!",
"!!!!!!!!!!!!!!!!!!!!!!!!",
"!!!!!!!!!!!!!!!!!!!!!!!!",
"!!!!!!!!!!!!!!!!!!!!!!!!"};