/* XPM */ 
static const unsigned char * fold_all_branch_xpm[] = {
"24 24 18 1",
" 	c None",
"!	c black",
"#	c #0099FF",
"$	c #57BCFF",
"%	c #072A41",
"&	c #2FACFF",
"'	c white",
"(	c #34ADFF",
")	c #47B5FF",
"*	c #45B4FF",
"+	c #09263A",
",	c #196AA1",
"-	c #13547F",
".	c #004D80",
"0	c #2BAAFF",
"1	c #40B2FF",
"2	c #17A2FF",
"3	c #002741",
" ###################### ",
"#$!!!!!!!!!!!!!!!!!!!!%#",
"#&!''''!''''!###$!###(!#",
"#&!''''!''''!###$!###$!#",
"#&!''''!''''!###$!###$!#",
"#&!''''!''''!($$)!($$*!#",
"#&!!!!!!!!!!!!!!!!!+,-!#",
"#&!''''!''''!###(!###(!#",
"#&!''''!''''!###$!###$!#",
"#&!''''!''''!###$!###$!#",
"#&!''''!''''!($$).$$$)!#",
"#&!!!!!!!!!!!!!!!!!!!!!#",
"#&.####!###0!''''!''''!#",
"#&!####!###$!''''!''''!#",
"#&!####!###$!''''!''''!#",
"#&!####!0$$1!''''!''''!#",
"#&!!!!!!!!!!!!!!!!!!!!!#",
"#&!###0!###0!''''!''''!#",
"#&!###$!###$!''''!''''!#",
"#&!###$!###$!''''!''''!#",
"#&!0$$1!0$$1!''''!''''!#",
"#23!!!!!!!!!!!!!!!!!!!!#",
"#2&&&&&&&&&&&&&&&&&&&&&#",
" ###################### "};