/* XPM */
static char * foldunfold_3_xpm[] = {
"24 24 6 1",
" 	c None",
".	c #0099FF",
"+	c #17A2FF",
"@	c #000000",
"#	c #2FACFF",
"$	c #FFFFFF",
" ...................... ",
".+@@@@@@@@@@@+#######++.",
".#@$$$$@$$$$@.........#.",
".#@$$$$@$$$$@.........#.",
".#@$$$$@$$$$@.........#.",
".#@$$$$@$$$$@.........#.",
".#@@@@@@@@@@@.........#.",
".#@$$$$@$$$$@.........#.",
".#@$$$$@$$$$@.........#.",
".#@$$$$@$$$$@.........#.",
".#@$$$$@$$$$@.........+.",
".#@@@@@@@@@@@@@@@@@@@@@.",
".#..........@$$$$$$$$$@.",
".#..........@$$$$$$$$$@.",
".#..........@$$$$$$$$$@.",
".#..........@$$$$$$$$$@.",
".#..........@@@@@@@@@@@.",
".#..........@$$$$$$$$$@.",
".#..........@$$$$$$$$$@.",
".#..........@$$$$$$$$$@.",
".#..........@$$$$$$$$$@.",
".+..........@@@@@@@@@@@.",
".+#####################.",
" ...................... "};
