/* XPM */
static char * i2_xpm[] = {
"24 24 123 2",
"  	c None",
". 	c #000000",
"+ 	c #D3D3D3",
"@ 	c #F6F6F6",
"# 	c #FFFFFF",
"$ 	c #F9F9F9",
"% 	c #DADADA",
"& 	c #585858",
"* 	c #C7C7C7",
"= 	c #D1D1D1",
"- 	c #D6D6D6",
"; 	c #FEFEFE",
"> 	c #FDFDFD",
", 	c #C0C0C0",
"' 	c #E1E1E1",
") 	c #F0F0F0",
"! 	c #9B9B9B",
"~ 	c #FCFCFB",
"{ 	c #FBFBFB",
"] 	c #AFAFAE",
"^ 	c #E9E9E9",
"/ 	c #DFDFDF",
"( 	c #8F8F8F",
"_ 	c #FAFAF9",
": 	c #F9F9F8",
"< 	c #A4A4A3",
"[ 	c #F4F4F4",
"} 	c #CFCFCF",
"| 	c #A2A2A2",
"1 	c #B7B7B5",
"2 	c #9E9E9E",
"3 	c #A49E93",
"4 	c #F4F3F2",
"5 	c #DEDDDC",
"6 	c #D3D2D0",
"7 	c #9F9E9D",
"8 	c #706F6F",
"9 	c #65625A",
"0 	c #F8F8F7",
"a 	c #F8F7F6",
"b 	c #F2F2F0",
"c 	c #E4E4E2",
"d 	c #DAD9D7",
"e 	c #D8D8D6",
"f 	c #CDCCCA",
"g 	c #AFAEAC",
"h 	c #88847B",
"i 	c #F7F6F5",
"j 	c #F6F6F4",
"k 	c #F5F4F3",
"l 	c #EFEFED",
"m 	c #EEEDEB",
"n 	c #EDECEA",
"o 	c #E9E8E6",
"p 	c #D5D4D3",
"q 	c #C4C3C2",
"r 	c #8F8A81",
"s 	c #F6F5F4",
"t 	c #F5F5F3",
"u 	c #F3F3F1",
"v 	c #F1F0EE",
"w 	c #ECEBE9",
"x 	c #EAE9E7",
"y 	c #E5E4E2",
"z 	c #E4E3E0",
"A 	c #D2D1CE",
"B 	c #8D887E",
"C 	c #F3F2F1",
"D 	c #F0F0EE",
"E 	c #EFEEEC",
"F 	c #E8E7E5",
"G 	c #E5E4E1",
"H 	c #E2E1DE",
"I 	c #E1DFDC",
"J 	c #979288",
"K 	c #E8E7E4",
"L 	c #E7E6E3",
"M 	c #E3E2DF",
"N 	c #E2E0DD",
"O 	c #E1E0DC",
"P 	c #E0DFDB",
"Q 	c #A19C90",
"R 	c #EDEDEB",
"S 	c #E6E4E1",
"T 	c #E3E2DE",
"U 	c #DFDEDA",
"V 	c #DEDDD9",
"W 	c #DDDCD8",
"X 	c #A19B90",
"Y 	c #EBEAE8",
"Z 	c #DCDBD7",
"` 	c #E6E5E2",
" .	c #E5E4E0",
"..	c #E4E3DF",
"+.	c #E2E1DD",
"@.	c #DBD9D5",
"#.	c #D9D7D3",
"$.	c #9F998D",
"%.	c #E4E2DF",
"&.	c #DDDBD7",
"*.	c #DCDAD6",
"=.	c #D8D6D2",
"-.	c #9E988D",
";.	c #EDEDED",
">.	c #E1E0DD",
",.	c #E0DEDA",
"'.	c #D8D6D1",
").	c #D7D5D1",
"!.	c #9D978B",
"~.	c #E1DFDB",
"{.	c #DEDCD8",
"].	c #D7D6D1",
"^.	c #D5D3CE",
"/.	c #9B958A",
"(.	c #999891",
"_.	c #A39E92",
":.	c #A39D92",
"<.	c #A39D91",
"[.	c #A29C90",
"}.	c #A19B8F",
"|.	c #9D978C",
"1.	c #9B968A",
"2.	c #676359",
"                                                ",
"      . . . . . . . . . . . . .                 ",
"    . + @ # # # # # # # # $ % & .               ",
"    . @ # # # # # # # # # # * = - .             ",
"    . # # # # # # # ; # ; > , ' ) ! .           ",
"    . # # # # # ; > ~ > ~ { ] ^ # / ( .         ",
"    . # # # ; > ~ { _ { _ : < ) # [ } | .       ",
"    . # ; > ~ { 1 1 1 1 1 1 2 . . . . . . .     ",
"    . # ~ { _ : 3 . . . . . 4 5 6 1 7 8 9 .     ",
"    . # _ : 0 a 3 3 3 . 1 1 b c d e f g h .     ",
"    . # 0 a i j k 4 3 . 1 b l m n o p q r .     ",
"    . # s t 4 4 u b 3 . 1 v m w x y z A B .     ",
"    . # 4 C b D l v 3 . 1 E w F G z H I J .     ",
"    . # 4 C b D l v 3 . 1 E w F G z H I 3 .     ",
"    . # D l l E m n 3 . 1 w K L M N O P Q .     ",
"    . # R n w w 3 3 3 . 1 3 1 S T U V W X .     ",
"    . # Y o o F 3 . . . . . 1 T P V W Z X .     ",
"    . # L ` ` ` G S  .S  ...+.P V Z @.#.$..     ",
"    . $ z M T %...+.T +.T O O V &.*.#.=.-..     ",
"    . ;.>.I O P +.P O P O U ,.&.*.#.'.).!..     ",
"    . = ~.,.U V P V ,.V ,.{.{.*.*.=.].^./..     ",
"    . (._.3 :.<.:.Q [.Q [.}.X $.$.|.|.1.2..     ",
"      . . . . . . . . . . . . . . . . . .       ",
"                                                "};
