/* XPM */ 
static const unsigned char * linum_xpm[] = {
"24 24 9 1",
" 	c None",
"!	c black",
"#	c #0099FF",
"$	c #59BCFF",
"%	c #45B4FF",
"&	c #57BBFF",
"'	c #3AB0FF",
"(	c white",
")	c #52B9FF",
" ###################### ",
"#$%%%%&%%%%%%%%%%%%%%%$#",
"#%'((''###############%#",
"#%''(''###############%#",
"#%''(''#((#((#((#((#((%#",
"#%''(''###############%#",
"#%'((('###############%#",
"#&'''')'''''''''''''''%#",
"#%'((('###############%#",
"#%'('('###############%#",
"#%'''('###############%#",
"#%''(''#((#((#((#((#((%#",
"#%'('''###############%#",
"#%'((('###############%#",
"#&'''')'''''''''''''''&#",
"#%'((('###############%#",
"#%'('('###############%#",
"#%''(''###############%#",
"#%'''('#((#((#((#((#((%#",
"#%'('('###############%#",
"#%'((('###############%#",
"#&'''')'''''''''''''''&#",
" ###################### ",
"                        "};