/* XPM */
static char * o_xpm[] = {
"24 24 126 2",
"  	c None",
". 	c #000000",
"+ 	c #D3D3D3",
"@ 	c #F6F6F6",
"# 	c #FFFFFF",
"$ 	c #F9F9F9",
"% 	c #DADADA",
"& 	c #585858",
"* 	c #C7C7C7",
"= 	c #D1D1D1",
"- 	c #D6D6D6",
"; 	c #FEFEFE",
"> 	c #FDFDFD",
", 	c #C0C0C0",
"' 	c #E1E1E1",
") 	c #F0F0F0",
"! 	c #9B9B9B",
"~ 	c #FCFCFB",
"{ 	c #FBFBFB",
"] 	c #AFAFAE",
"^ 	c #E9E9E9",
"/ 	c #DFDFDF",
"( 	c #8F8F8F",
"_ 	c #FAFAF9",
": 	c #F9F9F8",
"< 	c #A4A4A3",
"[ 	c #F4F4F4",
"} 	c #CFCFCF",
"| 	c #A2A2A2",
"1 	c #C4C3C2",
"2 	c #F8F7F6",
"3 	c #9E9E9E",
"4 	c #F8F8F7",
"5 	c #F4F3F2",
"6 	c #DEDDDC",
"7 	c #D3D2D0",
"8 	c #B7B7B5",
"9 	c #9F9E9D",
"0 	c #706F6F",
"a 	c #65625A",
"b 	c #F5F4F3",
"c 	c #F6F6F4",
"d 	c #E4E4E2",
"e 	c #DAD9D7",
"f 	c #D8D8D6",
"g 	c #CDCCCA",
"h 	c #AFAEAC",
"i 	c #88847B",
"j 	c #F7F6F5",
"k 	c #F3F3F1",
"l 	c #EDECEA",
"m 	c #E9E8E6",
"n 	c #D5D4D3",
"o 	c #8F8A81",
"p 	c #F6F5F4",
"q 	c #F5F5F3",
"r 	c #F2F2F0",
"s 	c #F1F1EF",
"t 	c #A49E93",
"u 	c #EAE9E7",
"v 	c #E5E4E2",
"w 	c #E4E3E0",
"x 	c #D2D1CE",
"y 	c #8D887E",
"z 	c #F3F2F1",
"A 	c #F0F0EE",
"B 	c #F1F0EE",
"C 	c #F0EFED",
"D 	c #E5E4E1",
"E 	c #E2E1DE",
"F 	c #E1DFDC",
"G 	c #979288",
"H 	c #EFEFED",
"I 	c #EFEEEC",
"J 	c #EEEDEB",
"K 	c #E7E6E3",
"L 	c #E3E2DF",
"M 	c #E2E0DD",
"N 	c #E1E0DC",
"O 	c #E0DFDB",
"P 	c #A19C90",
"Q 	c #EDEDEB",
"R 	c #ECEBE9",
"S 	c #EBEAE8",
"T 	c #E6E4E1",
"U 	c #E3E2DE",
"V 	c #DFDEDA",
"W 	c #DEDDD9",
"X 	c #DDDCD8",
"Y 	c #A19B90",
"Z 	c #E8E7E5",
"` 	c #E8E7E4",
" .	c #E7E5E2",
"..	c #E4E3DF",
"+.	c #DCDBD7",
"@.	c #E6E5E2",
"#.	c #E5E4E0",
"$.	c #E2E1DD",
"%.	c #DBD9D5",
"&.	c #D9D7D3",
"*.	c #9F998D",
"=.	c #E4E2DF",
"-.	c #DDDBD7",
";.	c #DCDAD6",
">.	c #D8D6D2",
",.	c #9E988D",
"'.	c #EDEDED",
").	c #E1E0DD",
"!.	c #E0DEDA",
"~.	c #D8D6D1",
"{.	c #D7D5D1",
"].	c #9D978B",
"^.	c #E1DFDB",
"/.	c #DEDCD8",
"(.	c #D7D6D1",
"_.	c #D5D3CE",
":.	c #9B958A",
"<.	c #999891",
"[.	c #A39E92",
"}.	c #A39D92",
"|.	c #A39D91",
"1.	c #A29C90",
"2.	c #A19B8F",
"3.	c #9D978C",
"4.	c #9B968A",
"5.	c #676359",
"                                                ",
"      . . . . . . . . . . . . .                 ",
"    . + @ # # # # # # # # $ % & .               ",
"    . @ # # # # # # # # # # * = - .             ",
"    . # # # # # # # ; # ; > , ' ) ! .           ",
"    . # # # # # ; > ~ > ~ { ] ^ # / ( .         ",
"    . # # # ; > ~ { _ { _ : < ) # [ } | .       ",
"    . # ; > ~ { _ : 1 1 1 2 3 . . . . . . .     ",
"    . # ~ { _ : 4 1 . . . . 5 6 7 8 9 0 a .     ",
"    . # _ : 4 2 1 . b c b 5 . d e f g h i .     ",
"    . # 4 2 j c . 5 k 5 k 1 1 . l m n 1 o .     ",
"    . # p q 5 5 . r s r s 1 t . u v w x y .     ",
"    . # 5 z r A . B C B C 1 t . D w E F G .     ",
"    . # 5 z r A . B 1 1 1 t t . D w E F t .     ",
"    . # A H H I J . t t t t . K L M N O P .     ",
"    . # Q l R R R S . . . . D T U V W X Y .     ",
"    . # S m m Z ` ` K ` K  ...U O W X +.Y .     ",
"    . # K @.@.@.D T #.T #...$.O W +.%.&.*..     ",
"    . $ w L U =...$.U $.U N N W -.;.&.>.,..     ",
"    . '.).F N O $.O N O N V !.-.;.&.~.{.]..     ",
"    . = ^.!.V W O W !.W !././.;.;.>.(._.:..     ",
"    . <.[.t }.|.}.P 1.P 1.2.Y *.*.3.3.4.5..     ",
"      . . . . . . . . . . . . . . . . . .       ",
"                                                "};
