/* XPM */
static char * one_win_xpm[] = {
"24 24 9 1",
" 	c None",
".	c #808080",
"+	c #CCFFCC",
"@	c #8D887E",
"#	c #4A4A4A",
"$	c #C0C0C0",
"%	c #99CCFF",
"&	c #ADC5DF",
"*	c #363636",
" ...................... ",
".++++++.++++++++++++++@#",
".+$$$$+.+%$&%%%%%%%%%&@#",
".++++++.++++++++++++++@#",
".+$$$$+.+%$&%%%&++++++@#",
".++++++.++++++++++++++@#",
".+$$$$+.+%$&%%%%%%%%%&@#",
".++++++.++++++++++++++@#",
".+$$$$+.+%$&%%%%%&++++@#",
".++++++.++++++++++++++@#",
".+$$$$+.+%$&%%%%%%&+++@#",
".++++++.++++++++++++++@#",
".+$$$$+.++++++++++++++@#",
".++++++.+%$&%%%%%&++++@#",
".+$$$$+.++++++++++++++@#",
".++++++.+%$&%%%%&+++++@#",
"........++++++++++++++@#",
".++++++.+%$&%%%%&+++++@#",
".+$$$$+.++++++++++++++@#",
".++++++.+%$&%%%%%%%%%&@#",
".+$$$$+.++++++++++++++@#",
".++++++.+%$&%%%%%%%&++@#",
".@@@@@@.@@@@@@@@@@@@@@*#",
" ###################### "};
