/* XPM */ 
static const unsigned char * p3_xpm[] = {
"24 24 117 2",
"  	c None",
"! 	c black",
"# 	c #D3D3D3",
"$ 	c #F6F6F6",
"% 	c white",
"& 	c #F9F9F9",
"' 	c #DADADA",
"( 	c #585858",
") 	c #C7C7C7",
"* 	c #D1D1D1",
"+ 	c #D6D6D6",
", 	c #FEFEFE",
"- 	c #FDFDFD",
". 	c #C0C0C0",
"0 	c #E1E1E1",
"1 	c #F0F0F0",
"2 	c #9B9B9B",
"3 	c #FCFCFB",
"4 	c #FBFBFB",
"5 	c #AFAFAE",
"6 	c #E9E9E9",
"7 	c #DFDFDF",
"8 	c #8F8F8F",
"9 	c #FAFAF9",
": 	c #F9F9F8",
"; 	c #A4A4A3",
"< 	c #F4F4F4",
"= 	c #CFCFCF",
"> 	c #A2A2A2",
"? 	c #AFAEAC",
"@ 	c #DFDEDA",
"A 	c #DEDDDC",
"B 	c #D3D2D0",
"C 	c #B7B7B5",
"D 	c #9F9E9D",
"E 	c #706F6F",
"F 	c #65625A",
"G 	c #F8F8F7",
"H 	c #F8F7F6",
"I 	c #E4E4E2",
"J 	c #DAD9D7",
"K 	c #D8D8D6",
"L 	c #CDCCCA",
"M 	c #88847B",
"N 	c #F7F6F5",
"O 	c #F6F6F4",
"P 	c #EEEDEB",
"Q 	c #EDECEA",
"R 	c #E9E8E6",
"S 	c #D5D4D3",
"T 	c #C4C3C2",
"U 	c #8F8A81",
"V 	c #F6F5F4",
"W 	c #F5F5F3",
"X 	c #F4F3F2",
"Y 	c #ECEBE9",
"Z 	c #EAE9E7",
"[ 	c #E5E4E2",
"] 	c #E4E3E0",
"^ 	c #D2D1CE",
"_ 	c #8D887E",
"` 	c #F3F2F1",
"a 	c #F2F2F0",
"b 	c #F0F0EE",
"c 	c #E8E7E5",
"d 	c #E5E4E1",
"e 	c #E2E1DE",
"f 	c #E1DFDC",
"g 	c #979288",
"h 	c #A49E93",
"i 	c #EFEFED",
"j 	c #EFEEEC",
"k 	c #E7E6E3",
"l 	c #E3E2DF",
"m 	c #E2E0DD",
"n 	c #E1E0DC",
"o 	c #E0DFDB",
"p 	c #A19C90",
"q 	c #EDEDEB",
"r 	c #E6E4E1",
"s 	c #E3E2DE",
"t 	c #DEDDD9",
"u 	c #DDDCD8",
"v 	c #A19B90",
"w 	c #EBEAE8",
"x 	c #DCDBD7",
"y 	c #E6E5E2",
"z 	c #DBD9D5",
"{ 	c #D9D7D3",
"| 	c #9F998D",
"} 	c #E4E2DF",
"~ 	c #E4E3DF",
" !	c #E2E1DD",
"!!	c #DDDBD7",
"#!	c #DCDAD6",
"$!	c #D8D6D2",
"%!	c #9E988D",
"&!	c #EDEDED",
"'!	c #E1E0DD",
"(!	c #E0DEDA",
")!	c #D8D6D1",
"*!	c #D7D5D1",
"+!	c #9D978B",
",!	c #E1DFDB",
"-!	c #DEDCD8",
".!	c #D7D6D1",
"0!	c #D5D3CE",
"1!	c #9B958A",
"2!	c #999891",
"3!	c #A39E92",
"4!	c #A39D92",
"5!	c #A39D91",
"6!	c #A29C90",
"7!	c #A19B8F",
"8!	c #9D978C",
"9!	c #9B968A",
":!	c #676359",
"                                                ",
"      ! ! ! ! ! ! ! ! ! ! ! ! !                 ",
"    ! # $ % % % % % % % % & ' ( !               ",
"    ! $ % % % % % % % % % % ) * + !             ",
"    ! % % % % % % % , % , - . 0 1 2 !           ",
"    ! % % % % % , - 3 - 3 4 5 6 % 7 8 !         ",
"    ! % % % , - 3 4 9 4 9 : ; 1 % < = > !       ",
"    ! % , - 3 ? ! ! ! ! ! ! ; ! ! ! ! ! ! !     ",
"    ! % 3 4 9 : ? ! @ @ @ ? ! A B C D E F !     ",
"    ! % 9 : G H ? ! @ @ @ ? ! I J K L ? M !     ",
"    ! % G H N O ? ! @ @ ? ? ! P Q R S T U !     ",
"    ! % V W X X ? ! ? ? ? ? ! Y Z [ ] ^ _ !     ",
"    ! % X ` a b ? ! ! ! ! ! @ c d ] e f g !     ",
"    ! % X ` a b ? ! @ @ @ @ @ c d ] e f h !     ",
"    ! % b i i j ? ! @ @ @ @ @ k l m n o p !     ",
"    ! % q Q Y Y ? ! @ @ @ @ @ r s @ t u v !     ",
"    ! % w R R ? ? ! ? @ @ @ @ s o t u x v !     ",
"    ! % k y y ? ! ! ! @ @ @ @ o t x z { | !     ",
"    ! & ] l s } ~  !s  !s n n t !!#!{ $!%!!     ",
"    ! &!'!f n o  !o n o n @ (!!!#!{ )!*!+!!     ",
"    ! * ,!(!@ t o t (!t (!-!-!#!#!$!.!0!1!!     ",
"    ! 2!3!h 4!5!4!p 6!p 6!7!v | | 8!8!9!:!!     ",
"      ! ! ! ! ! ! ! ! ! ! ! ! ! ! ! ! ! !       ",
"                                                "};