/* XPM */
static char * page_xpm[] = {
"20 15 5 1",
" 	c None",
".	c #828282",
"+	c #000000",
"@	c #FFFFFF",
"#	c #ADADAD",
"       ............ ",
"      .++++++++++++.",
"     .++@@@@@@@@@@+.",
"    .+#+@@@@@@@@@@+.",
"   .+##+@@@@@@@@@@+.",
"  .+###+@@@@@@@@@@+.",
" .+####+@@@@@@@@@@+.",
".+++++++@@@@@@@@@@+.",
".+@@@@@@@@@@@@@@@@+.",
".+@@@@@@@@@@@@@@@@+.",
".+@@@@@@@@@@@@@@@@+.",
".+@@@@@@@@@@@@@@@@+.",
".+@@@@@@@@@@@@@@@@+.",
".++++++++++++++++++.",
" .................. "};
