/* XPM */ 
static const unsigned char * pif_xpm[] = {
"24 24 27 1",
" 	c None",
"!	c #CEEED0",
"#	c #CAC1A9",
"$	c #C03B33",
"%	c #CDDFC3",
"&	c #CCD0B6",
"'	c #C47768",
"(	c #C3685B",
")	c #C9B29C",
"*	c #BD1D19",
"+	c #BB0000",
",	c #C14A40",
"-	c #C2594D",
".	c #BF2C26",
"0	c #BC0E0C",
"1	c #C79482",
"2	c #C68575",
"3	c #CBE8CC",
"4	c #C3DBC3",
"5	c #CDECCE",
"6	c #CAE7CB",
"7	c #9D9A97",
"8	c #979090",
"9	c #A4A69F",
":	c #CDEDCF",
";	c #BED3BE",
"<	c #C8E4C9",
"!!!!!!!!!!!!!!!!!!!!!!!!",
"!!!!!!!!!!!!!!!!!!!!!!!!",
"!!!!!!!!!!!!!!!!!!!!!!!!",
"!!!!!!!!!!!!!!!!!!!!!!!!",
"!!!!#$!%$#&'&!#($)!!!!!!",
"!!!!'*!)+!)+)!,+$)!!!!!!",
"!!!!,-!'.!%)%!+-!!!!!!!!",
"!!$$0*$*0(#$#$+*$!!!!!!!",
"!!'(+-'+,1)+)'+$'!!!!!!!",
"!!!)+!&+)!)+)!+'!!!!!!!!",
"!!)-*)2+)#)+)!+'!!!!!!!!",
"!!+++++++$)+)!+'!!!!!!!!",
"!!!*2!$-!!)+)!+'!!!!!!!!",
"!!&+)!02!!)+)!+'!!!!!!!!",
"!!)+!&+)!!#$#!$1!!!!!!!!",
"!!!!!!!!345!!345!!345!!!",
"!!!!!!!6789:6789:6789:!!",
"!!!!!!!;888<;888<;888<!!",
"!!!!!!!6789:6789:6789:!!",
"!!!!!!!!345!!345!!345!!!",
"!!!!!!!!!!!!!!!!!!!!!!!!",
"!!!!!!!!!!!!!!!!!!!!!!!!",
"!!!!!!!!!!!!!!!!!!!!!!!!",
"!!!!!!!!!!!!!!!!!!!!!!!!"};