/* XPM */ 
static const unsigned char * pls2_xpm[] = {
"32 32 8 1",
" 	c None",
"!	c black",
"#	c #C0C0C0",
"$	c #808080",
"%	c #FFFF00",
"&	c white",
"'	c #0000FF",
"(	c #000080",
"                !!!!!!!!!!!!    ",
"    !!!!!!!    !###########$!   ",
"    !%%%%%%!  !&&&&&&&&&&#$$!   ",
"    !!%%''%%! !&(((((((((#$$!   ",
"     !%%''%%! !&(''''''''#$$!   ",
"     !%%''%%! !&(''''!!''#$$!   ",
"     !%%''%%! !&('''!%!''#$$!   ",
"     !%%%%%!  !&('!!%!'''#$$!   ",
"     !%%!!!   !&(!%%!''''#$$!   ",
"     !%%!     !&!%%!'''''#$$!   ",
"     !%%!     !!%%!&&&&&&#$$!!! ",
"    !!%%!    !%%%!$$$$$$$$$!#&$!",
"    !%%%%!  !%%%!!!!!!!!!!!#&$$!",
"    !%%%%!!!%%%%%%%%%!&&&&&&#$$!",
"     !!!!!%%%%%%%%%!!#######$$$!",
"    !#####!!!!!%%%!##$!!!!$#$$! ",
"   !&&&&&&&&&!%%%!$$$$$$$$$$$!  ",
"   !&(((((((!%%!!!!!!!!!!!!!!   ",
"   !&('''''!%%!$$!  !!!!!  !!!!!",
"   !&(''''!%%!#$$!  !%%%%!!%%%%!",
"   !&('''!%!!'#$$!  !%%%%!%%%%%%",
"   !&(''!%!'''#$$!   !%%!!%%!!%!",
"   !&(''!!''''#$$!   !%%!'!%%!!!",
"   !&(''''''''#$$!   !%%!''!%%!!",
"   !&&&&&&&&&&#$$!!! !%%!!!!!%%!",
"  !!#$$$$$$$$$$$!#&$!!%%!%%!!%%%",
" !#!!!!!!!!!!!!!#&$$!%%%%%%%%%%!",
"!&&&&&&&&&&&&&&&&#$$!%%%%%!%%%!!",
"!&###############$$$!!!!!!!!!!! ",
"!&########$!!!!$#$$!            ",
"!#$$$$$$$$$$$$$$$$!             ",
" !!!!!!!!!!!!!!!!!              "};