/* XPM */
static char * pls3_xpm[] = {
"24 24 8 1",
" 	c None",
".	c #000000",
"+	c #FFFF00",
"@	c #FFFFFF",
"#	c #C0C0C0",
"$	c #808080",
"%	c #0000FF",
"&	c #000080",
"                        ",
"                        ",
" .......                ",
" .+++++..               ",
" ..++.++.  .......      ",
"  .++.++. .@@@@@#$.     ",
"  .++++.. .@%%&&#$.     ",
"  .++...  .@%&+&#$.     ",
" ..++..   .$&+&%#$.     ",
" .++++.   .++$$##$.     ",
" .........+++++.$$$.    ",
"     .@$+++++.$$$$$.    ",
"     .@%&&++..$$$$.     ",
"     .@%&+&$$.....      ",
"     .@&+&%#$..... .....",
"     .#$$###$.++++.++++.",
"     .$$$$$$$$.++..+..+.",
"    .@@@@@$$$$.++..++.. ",
"    .#$$$$$$$..++....++.",
"     ..........++..+..+.",
"             .+++++++++.",
"              ..........",
"                        ",
"                        "};
