/* XPM */ 
static const unsigned char * proc_outline_xpm[] = {
"24 24 12 1",
" 	c None",
"!	c black",
"#	c #CCFFCC",
"$	c #808080",
"%	c #8B938B",
"&	c #FF00E7",
"'	c #FF00F1",
"(	c #FF00E8",
")	c #FF00DF",
"*	c #FF00D9",
"+	c #FF00D7",
",	c #8D988C",
"                        ",
" !!!!!!!!!!!!!!!!!!!!!! ",
" !##################$%! ",
" !#&'()*+#!!!!!!!!!!#%! ",
" !#+*)('&#!!!!!!!!!!#%! ",
" !###################%! ",
" !####+++++#!!!!!!!##%! ",
" !####+++++#!!!!!!!##%! ",
" !###################%! ",
" !#+++++++#!!!!!!!!##%! ",
" !#+++++++#!!!!!!!!##%! ",
" !###################%! ",
" !####++++++#!!!!!!!!%! ",
" !####++++++#!!!!!!!!%! ",
" !###################%! ",
" !#######+++++++#!!!!,! ",
" !#######+++++++#!!!!,! ",
" !###################%! ",
" !#++++++#!!!!!!!!!!!%! ",
" !#++++++#!!!!!!!!!!!%! ",
" !###################%! ",
" !%%%$+++++++++++++$!!! ",
" !!!!!!!!!!!!!!!!!!!!!! ",
"                        "};