/* XPM */
static char * r_xpm[] = {
"24 24 124 2",
"  	c None",
". 	c #000000",
"+ 	c #D3D3D3",
"@ 	c #F6F6F6",
"# 	c #FFFFFF",
"$ 	c #F9F9F9",
"% 	c #DADADA",
"& 	c #585858",
"* 	c #C7C7C7",
"= 	c #D1D1D1",
"- 	c #D6D6D6",
"; 	c #FEFEFE",
"> 	c #FDFDFD",
", 	c #C0C0C0",
"' 	c #E1E1E1",
") 	c #F0F0F0",
"! 	c #9B9B9B",
"~ 	c #FCFCFB",
"{ 	c #FBFBFB",
"] 	c #AFAFAE",
"^ 	c #E9E9E9",
"/ 	c #DFDFDF",
"( 	c #8F8F8F",
"_ 	c #FAFAF9",
": 	c #F9F9F8",
"< 	c #A4A4A3",
"[ 	c #F4F4F4",
"} 	c #CFCFCF",
"| 	c #A2A2A2",
"1 	c #B7B7B5",
"2 	c #F8F7F6",
"3 	c #9E9E9E",
"4 	c #A49E93",
"5 	c #F4F3F2",
"6 	c #DEDDDC",
"7 	c #D3D2D0",
"8 	c #9F9E9D",
"9 	c #706F6F",
"0 	c #65625A",
"a 	c #F8F8F7",
"b 	c #F5F4F3",
"c 	c #F6F6F4",
"d 	c #F2F2F0",
"e 	c #E4E4E2",
"f 	c #DAD9D7",
"g 	c #D8D8D6",
"h 	c #CDCCCA",
"i 	c #AFAEAC",
"j 	c #88847B",
"k 	c #F7F6F5",
"l 	c #EFEFED",
"m 	c #EEEDEB",
"n 	c #EDECEA",
"o 	c #E9E8E6",
"p 	c #D5D4D3",
"q 	c #C4C3C2",
"r 	c #8F8A81",
"s 	c #F6F5F4",
"t 	c #F5F5F3",
"u 	c #F1F0EE",
"v 	c #ECEBE9",
"w 	c #EAE9E7",
"x 	c #E5E4E2",
"y 	c #E4E3E0",
"z 	c #D2D1CE",
"A 	c #8D887E",
"B 	c #F3F2F1",
"C 	c #F0F0EE",
"D 	c #F0EFED",
"E 	c #EFEEEC",
"F 	c #E8E7E5",
"G 	c #E5E4E1",
"H 	c #E2E1DE",
"I 	c #E1DFDC",
"J 	c #979288",
"K 	c #E8E7E4",
"L 	c #E7E6E3",
"M 	c #E3E2DF",
"N 	c #E2E0DD",
"O 	c #E1E0DC",
"P 	c #E0DFDB",
"Q 	c #A19C90",
"R 	c #EDEDEB",
"S 	c #E9E8E5",
"T 	c #EBEAE8",
"U 	c #E6E4E1",
"V 	c #E3E2DE",
"W 	c #DFDEDA",
"X 	c #DEDDD9",
"Y 	c #DDDCD8",
"Z 	c #A19B90",
"` 	c #DCDBD7",
" .	c #E6E5E2",
"..	c #E5E4E0",
"+.	c #E4E3DF",
"@.	c #E2E1DD",
"#.	c #DBD9D5",
"$.	c #D9D7D3",
"%.	c #9F998D",
"&.	c #E4E2DF",
"*.	c #DDDBD7",
"=.	c #DCDAD6",
"-.	c #D8D6D2",
";.	c #9E988D",
">.	c #EDEDED",
",.	c #E1E0DD",
"'.	c #E0DEDA",
").	c #D8D6D1",
"!.	c #D7D5D1",
"~.	c #9D978B",
"{.	c #E1DFDB",
"].	c #DEDCD8",
"^.	c #D7D6D1",
"/.	c #D5D3CE",
"(.	c #9B958A",
"_.	c #999891",
":.	c #A39E92",
"<.	c #A39D92",
"[.	c #A39D91",
"}.	c #A29C90",
"|.	c #A19B8F",
"1.	c #9D978C",
"2.	c #9B968A",
"3.	c #676359",
"                                                ",
"      . . . . . . . . . . . . .                 ",
"    . + @ # # # # # # # # $ % & .               ",
"    . @ # # # # # # # # # # * = - .             ",
"    . # # # # # # # ; # ; > , ' ) ! .           ",
"    . # # # # # ; > ~ > ~ { ] ^ # / ( .         ",
"    . # # # ; > ~ { _ { _ : < ) # [ } | .       ",
"    . # ; > ~ 1 1 1 1 1 1 2 3 . . . . . . .     ",
"    . # ~ { _ 4 . . . . . 1 5 6 7 1 8 9 0 .     ",
"    . # _ : a 2 4 . b c 4 . d e f g h i j .     ",
"    . # a 2 k c 4 . 4 4 4 . l m n o p q r .     ",
"    . # s t 5 5 4 . . . . u m v w x y z A .     ",
"    . # 5 B d C 4 . D . 1 E v F G y H I J .     ",
"    . # 5 B d C 4 . D 4 . 1 v F G y H I 4 .     ",
"    . # C l l E 4 . n n . 1 K L M N O P Q .     ",
"    . # R n v v 4 . S T 4 . 1 U V W X Y Z .     ",
"    . # T o o 4 . . . K 1 . . V P X Y ` Z .     ",
"    . # L  . . .G U ..U ..+.@.P X ` #.$.%..     ",
"    . $ y M V &.+.@.V @.V O O X *.=.$.-.;..     ",
"    . >.,.I O P @.P O P O W '.*.=.$.).!.~..     ",
"    . = {.'.W X P X '.X '.].].=.=.-.^./.(..     ",
"    . _.:.4 <.[.<.Q }.Q }.|.Z %.%.1.1.2.3..     ",
"      . . . . . . . . . . . . . . . . . .       ",
"                                                "};
