/* XPM */
static char * search_b_xpm[] = {
"24 24 172 2",
"  	c None",
". 	c #000000",
"+ 	c #D3D3D3",
"@ 	c #F6F6F6",
"# 	c #FFFFFF",
"$ 	c #F9F9F9",
"% 	c #DADADA",
"& 	c #585858",
"* 	c #C7C7C7",
"= 	c #D1D1D1",
"- 	c #D6D6D6",
"; 	c #FEFEFE",
"> 	c #FDFDFD",
", 	c #C0C0C0",
"' 	c #E1E1E1",
") 	c #F0F0F0",
"! 	c #9B9B9B",
"~ 	c #FCFCFB",
"{ 	c #FBFBFB",
"] 	c #AFAFAE",
"^ 	c #E9E9E9",
"/ 	c #DFDFDF",
"( 	c #8F8F8F",
"_ 	c #FAFAF9",
": 	c #F9F9F8",
"< 	c #A4A4A3",
"[ 	c #F4F4F4",
"} 	c #CFCFCF",
"| 	c #A2A2A2",
"1 	c #B8B8B8",
"2 	c #47473F",
"3 	c #0A0A09",
"4 	c #4B4B43",
"5 	c #B4B4B3",
"6 	c #F7F6F5",
"7 	c #9E9E9E",
"8 	c #A9A9A8",
"9 	c #34342E",
"0 	c #9D9D8D",
"a 	c #CFCFB9",
"b 	c #C4C4AF",
"c 	c #8D8D7F",
"d 	c #353530",
"e 	c #ACACAA",
"f 	c #F1F0EF",
"g 	c #DEDDDC",
"h 	c #D3D2D0",
"i 	c #B7B7B5",
"j 	c #9F9E9D",
"k 	c #706F6F",
"l 	c #65625A",
"m 	c #46463F",
"n 	c #9C9C8C",
"o 	c #E2E2D0",
"p 	c #EDEDE7",
"q 	c #C0C0AC",
"r 	c #B2B29F",
"s 	c #828274",
"t 	c #4C4C44",
"u 	c #E4E4E2",
"v 	c #E1E1DF",
"w 	c #DAD9D7",
"x 	c #D8D8D6",
"y 	c #CDCCCA",
"z 	c #AFAEAC",
"A 	c #88847B",
"B 	c #F8F8F7",
"C 	c #090908",
"D 	c #D5D5BF",
"E 	c #FBFBFA",
"F 	c #C3C3AE",
"G 	c #B5B5A2",
"H 	c #A6A695",
"I 	c #9C9C8F",
"J 	c #080807",
"K 	c #CFCFCD",
"L 	c #E3E2E0",
"M 	c #ECEBE9",
"N 	c #E9E8E6",
"O 	c #D5D4D3",
"P 	c #C4C3C2",
"Q 	c #8F8A81",
"R 	c #F6F5F4",
"S 	c #F3F3F1",
"T 	c #090909",
"U 	c #CACAB5",
"V 	c #DDDDD0",
"W 	c #B7B7A4",
"X 	c #AAAA98",
"Y 	c #9B9B8B",
"Z 	c #AEAEA3",
"` 	c #BBBAB9",
" .	c #E8E7E5",
"..	c #E5E4E2",
"+.	c #E4E3E0",
"@.	c #D2D1CE",
"#.	c #8D887E",
"$.	c #F4F3F2",
"%.	c #F0EFEE",
"&.	c #474740",
"*.	c #929283",
"=.	c #BABAA7",
"-.	c #ADAD9B",
";.	c #9F9F8E",
">.	c #ACACA1",
",.	c #CFCFCB",
"'.	c #4C4C45",
").	c #B3B2B1",
"!.	c #E2E1DE",
"~.	c #E1DFDC",
"{.	c #979288",
"].	c #949493",
"^.	c #34342F",
"/.	c #878779",
"(.	c #A0A090",
"_.	c #AEAEA2",
":.	c #C3C3BE",
"<.	c #010101",
"[.	c #B1B0AF",
"}.	c #D2D1CF",
"|.	c #A49E93",
"1.	c #DDDDDB",
"2.	c #898988",
"3.	c #414141",
"4.	c #737271",
"5.	c #A4A3A1",
"6.	c #DFDEDB",
"7.	c #E2E0DD",
"8.	c #E1E0DC",
"9.	c #E0DFDB",
"0.	c #A19C90",
"a.	c #00FF00",
"b.	c #CBCAC9",
"c.	c #B2B1B0",
"d.	c #A3A2A1",
"e.	c #9D9C9A",
"f.	c #9E9D9C",
"g.	c #9F9F9D",
"h.	c #ABAAA7",
"i.	c #DCDBD7",
"j.	c #DEDDD9",
"k.	c #DDDCD8",
"l.	c #A19B90",
"m.	c #9D9C99",
"n.	c #DAD9D5",
"o.	c #A6A4A1",
"p.	c #CECDC9",
"q.	c #D6D4D0",
"r.	c #9F998D",
"s.	c #008000",
"t.	c #BCBAB6",
"u.	c #CECCC8",
"v.	c #9D978C",
"w.	c #9E9C99",
"x.	c #ACABA7",
"y.	c #C7C5C2",
"z.	c #9B9589",
"A.	c #BDBCB8",
"B.	c #ACABA8",
"C.	c #B2B1AD",
"D.	c #C6C4C0",
"E.	c #999388",
"F.	c #A39D92",
"G.	c #A39D91",
"H.	c #A29C90",
"I.	c #A19B8F",
"J.	c #9D978B",
"K.	c #989286",
"L.	c #918C82",
"M.	c #938D83",
"N.	c #979286",
"O.	c #666258",
"                                                ",
"      . . . . . . . . . . . . .                 ",
"    . + @ # # # # # # # # $ % & .               ",
"    . @ # # # # # # # # # # * = - .             ",
"    . # # # # # # # ; # ; > , ' ) ! .           ",
"    . # # # # # ; > ~ > ~ { ] ^ # / ( .         ",
"    . # # # ; > ~ { _ { _ : < ) # [ } | .       ",
"    . # ; > ~ 1 2 3 3 4 5 6 7 . . . . . . .     ",
"    . # ~ { 8 9 0 a b c d e f g h i j k l .     ",
"    . # _ : m n o p q r s t u v w x y z A .     ",
"    . # B 6 C D E F G H I J K L M N O P Q .     ",
"    . # R S T U V W X Y Z 3 ` w  ...+.@.#..     ",
"    . # $.%.&.*.=.-.;.>.,.'.).h !.+.!.~.{..     ",
"    . # $.. ].^./.(._.:.<.<.[.}.!.+.!.~.|..     ",
"    . # . . 1.2.4 3 3 3.4.<.<.5.6.7.8.9.0..     ",
"    . . a.. # b.c.d.e.f.g.<.<.<.h.i.j.k.l..     ",
"    . a.a.. . . . . . . . . . . <.m.n.i.l..     ",
"  . a.a.a.a.a.a.a.a.a.a.a.. o.. <.<.p.q.r..     ",
". s.s.s.s.s.s.s.s.s.s.s.s.. o.o.<.<.t.u.v..     ",
"  . s.s.s.s.s.s.s.s.s.s.s.. o.o.o.w.x.y.z..     ",
"    . s.s.. . . . . . . . . o.o.A.B.C.D.E..     ",
"    # . s.. F.G.F.0.H.0.H.I.l.J.K.L.M.N.O..     ",
"      # . . . . . . . . . . . . . . . . .       ",
"          .                                     "};
