/* XPM */
static char * search_id_and_which_procs_xpm[] = {
"24 24 29 1",
" 	c None",
".	c #000000",
"+	c #FFFFFF",
"@	c #C0C0C0",
"#	c #0000FF",
"$	c #808080",
"%	c #FF0000",
"&	c #007F00",
"*	c #008000",
"=	c #00FF00",
"-	c #CCFFCC",
";	c #7FE54C",
">	c #66CC33",
",	c #8DF35A",
"'	c #89EF56",
")	c #82E84F",
"!	c #7EE44B",
"~	c #7BE148",
"{	c #FEFFFE",
"]	c #FCFFFB",
"^	c #080E05",
"/	c #F6FFF1",
"(	c #F2FFEB",
"_	c #EDFFE4",
":	c #E8FFDC",
"<	c #E2FFD4",
"[	c #DCFFCA",
"}	c #FF794B",
"|	c #3F3F3F",
"                        ",
" ...................... ",
" .+++++++++++++++++++@. ",
" ..#########.++++++++$. ",
" .+++.+++++++++++++++$. ",
" .+++.+%%%....&**&..+$. ",
" .+++.+++++++++++++++$. ",
" .+++.+..%%**&......+$. ",
" .+++.+++++++++++++++$. ",
" .+++.+.%....&=&...++$. ",
" .+++.+++++++++++++++$. ",
" ..##########..++++++$. ",
" .+++.++++++.........$. ",
" .+++.+...**.--------$. ",
" .+++.++++++.--.....-$. ",
" .;>>.,'>)!~.-..--..-$. ",
" .+{]^/(_:<[.--...---$. ",
" ..#########.----..--$. ",
" .+++.++++++.-..--..-$. ",
" .+++.+}}}...-.....--$. ",
" .+++.++++++.--------$. ",
" .@$@.@@$$$$.$$$$$$$$$| ",
" ......|............... ",
"                        "};
