/* XPM */ 
static const unsigned char * search_f_xpm[] = {
"24 24 177 2",
"  	c None",
"! 	c black",
"# 	c #D3D3D3",
"$ 	c #F6F6F6",
"% 	c white",
"& 	c #F9F9F9",
"' 	c #DADADA",
"( 	c #585858",
") 	c #C7C7C7",
"* 	c #D1D1D1",
"+ 	c #D6D6D6",
", 	c #FEFEFE",
"- 	c #FDFDFD",
". 	c #C0C0C0",
"0 	c #E1E1E1",
"1 	c #F0F0F0",
"2 	c #9B9B9B",
"3 	c #FCFCFB",
"4 	c #FBFBFB",
"5 	c #AFAFAE",
"6 	c #E9E9E9",
"7 	c #DFDFDF",
"8 	c #8F8F8F",
"9 	c #FAFAF9",
": 	c #F9F9F8",
"; 	c #A4A4A3",
"< 	c #F4F4F4",
"= 	c #CFCFCF",
"> 	c #A2A2A2",
"? 	c #B8B8B8",
"@ 	c #47473F",
"A 	c #0A0A09",
"B 	c #4B4B43",
"C 	c #B4B4B3",
"D 	c #F7F6F5",
"E 	c #9E9E9E",
"F 	c #A9A9A8",
"G 	c #34342E",
"H 	c #9D9D8D",
"I 	c #CFCFB9",
"J 	c #C4C4AF",
"K 	c #8D8D7F",
"L 	c #353530",
"M 	c #ACACAA",
"N 	c #F1F0EF",
"O 	c #DEDDDC",
"P 	c #D3D2D0",
"Q 	c #B7B7B5",
"R 	c #9F9E9D",
"S 	c #706F6F",
"T 	c #65625A",
"U 	c #46463F",
"V 	c #9C9C8C",
"W 	c #E2E2D0",
"X 	c #EDEDE7",
"Y 	c #C0C0AC",
"Z 	c #B2B29F",
"[ 	c #828274",
"] 	c #4C4C44",
"^ 	c #E4E4E2",
"_ 	c #E1E1DF",
"` 	c #DAD9D7",
"a 	c #D8D8D6",
"b 	c #CDCCCA",
"c 	c #AFAEAC",
"d 	c #88847B",
"e 	c #F8F8F7",
"f 	c #090908",
"g 	c #D5D5BF",
"h 	c #FBFBFA",
"i 	c #C3C3AE",
"j 	c #B5B5A2",
"k 	c #A6A695",
"l 	c #9C9C8F",
"m 	c #080807",
"n 	c #CFCFCD",
"o 	c #E3E2E0",
"p 	c #ECEBE9",
"q 	c #E9E8E6",
"r 	c #D5D4D3",
"s 	c #C4C3C2",
"t 	c #8F8A81",
"u 	c #F6F5F4",
"v 	c #F3F3F1",
"w 	c #090909",
"x 	c #CACAB5",
"y 	c #DDDDD0",
"z 	c #B7B7A4",
"{ 	c #AAAA98",
"| 	c #9B9B8B",
"} 	c #AEAEA3",
"~ 	c #BBBAB9",
" !	c #E8E7E5",
"!!	c #E5E4E2",
"#!	c #E4E3E0",
"$!	c #D2D1CE",
"%!	c #8D887E",
"&!	c #F4F3F2",
"'!	c #F0EFEE",
"(!	c #474740",
")!	c #929283",
"*!	c #BABAA7",
"+!	c #ADAD9B",
",!	c #9F9F8E",
"-!	c #ACACA1",
".!	c #CFCFCB",
"0!	c #4C4C45",
"1!	c #B3B2B1",
"2!	c #E2E1DE",
"3!	c #E1DFDC",
"4!	c #979288",
"5!	c #949493",
"6!	c #34342F",
"7!	c #878779",
"8!	c #AEAEA2",
"9!	c #C3C3BE",
":!	c #010101",
";!	c #B1B0AF",
"<!	c #D2D1CF",
"=!	c #A49E93",
">!	c #F0F0EE",
"?!	c #EDEDEB",
"@!	c #DDDDDB",
"A!	c #898988",
"B!	c #414141",
"C!	c #737271",
"D!	c #A4A3A1",
"E!	c #DFDEDB",
"F!	c #E2E0DD",
"G!	c #E1E0DC",
"H!	c #E0DFDB",
"I!	c #A19C90",
"J!	c #E1E0DE",
"K!	c #CBCAC9",
"L!	c #B2B1B0",
"M!	c #52DD22",
"N!	c #9F9F9D",
"O!	c #ABAAA7",
"P!	c #DCDBD7",
"Q!	c #DEDDD9",
"R!	c #DDDCD8",
"S!	c #A19B90",
"T!	c #747371",
"U!	c #9D9C99",
"V!	c #DAD9D5",
"W!	c #13EC20",
"X!	c #6B6B69",
"Y!	c #CECDC9",
"Z!	c #D6D4D0",
"[!	c #9F998D",
"]!	c #008000",
"^!	c #7B7A78",
"_!	c #BCBAB6",
"`!	c #CECCC8",
"a!	c #9D978C",
"b!	c #D1D0CC",
"c!	c #BBB9B6",
"d!	c #A6A4A1",
"e!	c #9E9C99",
"f!	c #ACABA7",
"g!	c #C7C5C2",
"h!	c #9B9589",
"i!	c #DEDCD8",
"j!	c #DAD8D4",
"k!	c #BDBCB8",
"l!	c #ACABA8",
"m!	c #B2B1AD",
"n!	c #C6C4C0",
"o!	c #999388",
"p!	c #A29C90",
"q!	c #A19B8F",
"r!	c #9D978B",
"s!	c #989286",
"t!	c #918C82",
"u!	c #938D83",
"v!	c #979286",
"w!	c #666258",
"                                                ",
"      ! ! ! ! ! ! ! ! ! ! ! ! !                 ",
"    ! # $ % % % % % % % % & ' ( !               ",
"    ! $ % % % % % % % % % % ) * + !             ",
"    ! % % % % % % % , % , - . 0 1 2 !           ",
"    ! % % % % % , - 3 - 3 4 5 6 % 7 8 !         ",
"    ! % % % , - 3 4 9 4 9 : ; 1 % < = > !       ",
"    ! % , - 3 ? @ A A B C D E ! ! ! ! ! ! !     ",
"    ! % 3 4 F G H I J K L M N O P Q R S T !     ",
"    ! % 9 : U V W X Y Z [ ] ^ _ ` a b c d !     ",
"    ! % e D f g h i j k l m n o p q r s t !     ",
"    ! % u v w x y z { | } A ~ `  !!!#!$!%!!     ",
"    ! % &!'!(!)!*!+!,!-!.!0!1!P 2!#!2!3!4!!     ",
"    ! % &!'!5!6!7!! 8!9!:!:!;!<!2!#!2!3!=!!     ",
"    ! % >!?!@!A!B ! ! B!C!:!:!D!E!F!G!H!I!!     ",
"    ! % ?!p J!K!L!! M!! N!:!:!:!O!P!Q!R!S!!     ",
"  ! ! ! ! ! ! ! ! ! M!M!! T!! :!:!U!V!P!S!!     ",
"  ! W!M!M!M!M!M!M!M!M!M!M!! X!:!:!:!Y!Z![!!     ",
"  ! ]!]!]!]!]!]!]!]!]!]!]!]!! ^!:!:!_!`!a!!     ",
"  ! ]!]!]!]!]!]!]!]!]!]!]!! b!c!d!e!f!g!h!!     ",
"  ! ! ! ! ! ! ! ! ! ]!]!! i!j!`!k!l!m!n!o!!     ",
"    ! #!#!#!#!#!#!! ]!! p!q!S!r!s!t!u!v!w!!     ",
"      ! ! ! ! ! ! ! ! ! ! ! ! ! ! ! ! ! !       ",
"                  !                             "};