/* XPM */ 
static const unsigned char * search_id_xpm[] = {
"24 24 107 2",
"  	c None",
"! 	c black",
"# 	c #00476C",
"$ 	c #005480",
"% 	c #005581",
"& 	c #156188",
"' 	c #006396",
"( 	c #1571A0",
") 	c #BFD7E3",
"* 	c #005582",
"+ 	c #006497",
", 	c #1571A1",
"- 	c #BFD7E4",
". 	c #156189",
"0 	c #15628B",
"1 	c #00486E",
"2 	c #006092",
"3 	c #006294",
"4 	c #006599",
"5 	c #006295",
"6 	c #154F6E",
"7 	c #00486D",
"8 	c #BFD8E5",
"9 	c #155B7F",
": 	c #BFD3DD",
"; 	c #156B98",
"< 	c #154E6C",
"= 	c #1572A1",
"> 	c #155F86",
"? 	c #004F78",
"@ 	c #006AA0",
"A 	c #0077B4",
"B 	c #1580B8",
"C 	c #156B97",
"D 	c #00689F",
"E 	c #006CA3",
"F 	c #0078B4",
"G 	c #007EBF",
"H 	c #007CBD",
"I 	c #154964",
"J 	c #00669B",
"K 	c #0072AA",
"L 	c #007DBB",
"M 	c #BFD8E6",
"N 	c #1584BE",
"O 	c #0069A0",
"P 	c #156893",
"Q 	c #006DA4",
"R 	c #007BB8",
"S 	c #0082C5",
"T 	c #0081C2",
"U 	c #175B7E",
"V 	c #00679B",
"W 	c #0071AA",
"X 	c #007AB8",
"Y 	c #0079B6",
"Z 	c #15709E",
"[ 	c #00679D",
"] 	c #156994",
"^ 	c #BFD5E0",
"_ 	c #176A95",
"` 	c #2A7297",
"a 	c #006194",
"b 	c #00659A",
"c 	c #00689C",
"d 	c #1583BB",
"e 	c #006CA2",
"f 	c #006FA6",
"g 	c #007DBE",
"h 	c #1582BA",
"i 	c #176A96",
"j 	c #006BA1",
"k 	c #00689D",
"l 	c #0073AD",
"m 	c #007EBD",
"n 	c #D4E5EE",
"o 	c #1587C0",
"p 	c #155B80",
"q 	c #006DA3",
"r 	c #0070A8",
"s 	c #007BB9",
"t 	c #0082C4",
"u 	c #D4E6EF",
"v 	c #176995",
"w 	c #0082C6",
"x 	c #006499",
"y 	c #00699F",
"z 	c #0071A9",
"{ 	c #007AB7",
"| 	c #007EBE",
"} 	c #1583BA",
"~ 	c #006498",
" !	c #006BA0",
"!!	c #006EA5",
"#!	c #0077B3",
"$!	c #007DBD",
"%!	c #00537F",
"&!	c #005682",
"'!	c #005784",
"(!	c #005886",
")!	c #005988",
"*!	c #005885",
"+!	c #155C80",
",!	c #004669",
"-!	c #005683",
".!	c #155C81",
"0!	c #00527D",
"                                                ",
"          # $ % & #         # $ % & #           ",
"          $ ' ( ) &         $ ' ( ) &           ",
"          * + , - .         % + , - 0           ",
"        1 2 2 2 2 *         * 2 2 2 2 1         ",
"      1 3 4 4 4 , 5 1     1 5 4 4 4 4 2 6       ",
"    7 3 4 4 4 , 8 , 9 * * 9 4 4 4 4 + : ; <     ",
"    $ + 4 4 4 = - , 9 + + 9 4 4 4 4 4 - ( >     ",
"    * 2 2 2 2 2 2 2 9 4 4 9 2 2 2 2 2 2 2 ?     ",
"  1 5 4 4 @ A 8 B C 9 4 4 9 D E E E E F G H I   ",
"$ 5 4 4 J K L M N C 9 + + 9 O P E E Q R S : T U ",
"+ 4 4 4 V W X Y Z 5 9 % % 9 [ ] E E E F G ^ H _ ",
"2 2 2 2 2 2 2 2 2 2         * 2 2 2 2 2 2 2 ` a ",
"b @ c W X G M d ] 2         2 ' b e f F g - h i ",
"b j k l m S n o p             * 4 q r s t u o v ",
"b j k l m w n o 9             % 4 q r s t u o v ",
"b j k l m w n o 9             % 4 q r s t u o v ",
"b j k l m w n o 9             % 4 q r s t u o v ",
"b j k l m w n o 9             % 4 q r s t u o v ",
"b j k l m w n o 9             % 4 q r s t u o v ",
"b j k l m S n o 9             % 4 q r s t u o v ",
"x y V z { | ) } 9             $ ~  !!!#!$!- h v ",
"%!&!% '!(!)!*!+!,!            # $ -!-!(!)!*!.!0!",
"                                                "};