/* XPM */ 
static const unsigned char * sidebar_xpm[] = {
"24 24 27 1",
" 	c None",
"!	c black",
"#	c #272727",
"$	c #2C2C2C",
"%	c #464646",
"&	c #222222",
"'	c white",
"(	c #DFDFDF",
")	c #FF0000",
"*	c #EEEEEE",
"+	c #A1A1A1",
",	c #808080",
"-	c #C0C0C0",
".	c #BFBFBF",
"0	c #080000",
"1	c #0000FF",
"2	c #5151CF",
"3	c #280000",
"4	c #C1C1C1",
"5	c #CFCFCF",
"6	c #848484",
"7	c #8C8C8C",
"8	c #949494",
"9	c #9C9C9C",
":	c #A4A4A4",
";	c #969696",
"<	c #8E8E8E",
"                        ",
" #$%%%%%%%%%%%%%%%%%&!! ",
" %'''''(!'''')''''''*+! ",
" %'),,+-!'.))),,,,,+',! ",
" %')))'(!()))(''''''',! ",
" %(+))))0)))+,,,,,,+',! ",
" %''''))))-('''''''(',! ",
" %'+,))))))-+,,,,,,+',! ",
" %''')))!)))-(''''''',! ",
" %',))+-!')))+,,,,1,',! ",
" %'))''(!'--)-(''1''',! ",
" %'),,,+!'+,+)+,11,+',! ",
" %'''''(!'(''')11(''',! ",
" %'1,,,+!'+,,,11+,,+',! ",
" %'11'--!'(''11(''''',! ",
" %',11,+!(+,111,,,,+',! ",
" %'(111-!--111''''''',! ",
" %'+,21131111,,,,,,+',! ",
" %'(''111111'''''''(',! ",
" %'+,,,1111+,,,,,,,+(,! ",
" %'''''(11''''''''''4,! ",
" %5,,,,+!-+6789:;<,,,,! ",
" &!!!!!!!!!!!!!!!!!!!!! ",
"                        "};