/* XPM */ 
static const unsigned char * three_wins_xpm[] = {
"24 24 11 1",
" 	c None",
"!	c black",
"#	c #808080",
"$	c #CCFFCC",
"%	c #8D887E",
"&	c #4A4A4A",
"'	c #C0C0C0",
"(	c #99CCFF",
")	c #ADC5DF",
"*	c #909090",
"+	c #B3E6E5",
" ###################### ",
"#$$$$$$#$$$$$$$$$$$$$%%&",
"#$''''$#$(')((((((((()%&",
"#$$$$$$#$$$$$$$$$$$$$$%&",
"#$''''$#$(')((()$$$$$$%&",
"#$$$$$$#$$$$$$$$$$$$$$%&",
"#$''''$#$(')((((((((()%&",
"#$$$$$$#$$$$$$$$$$$$$$%&",
"#$''''$#$(')((((()$$$$%&",
"#$$$$$$#$$$$$$$$$$$$$$%&",
"#$''''$#$(')(((((()$$$%&",
"#$$$$$$#$$$$$$$$$$$$$$%&",
"#$''''$*##############%&",
"#$$$$$$#$$$$$$$$$$$$$$%&",
"#$''''$#$($+((((((((((%&",
"#$$$$$$#$$$$$$$$$$$$$$%&",
"######%#$($+(((((((((+%&",
"#$$$$$$#$$$$$$$$$$$$$$%&",
"#$''''$###############%&",
"#$$$$$$#$$$$$$$$$$$$$$%&",
"#$''''$#$(((((((+((((+%&",
"#$$$$$$#$$$$$$$$$$$$$$%&",
"#%%%%%%#$$$$$$$$$$$$$$%&",
" &&&&&&&&&&&&&&&&&&&&&& "};