/* XPM */
static char * toggle_sidebar_xpm[] = {
"24 24 57 1",
" 	c None",
".	c #101010",
"+	c #000000",
"@	c #0A0A0A",
"#	c #FFFFFF",
"$	c #1F1F1F",
"%	c #B7B7B7",
"&	c #EEEEEE",
"*	c #DFDFDF",
"=	c #808080",
"-	c #6A6A6A",
";	c #A1A1A1",
">	c #454545",
",	c #C0C0C0",
"'	c #7A7A7A",
")	c #4C4C4C",
"!	c #EDEDED",
"~	c #7C7C7C",
"{	c #1A1A1A",
"]	c #868686",
"^	c #0C0C0C",
"/	c #DCDCDC",
"(	c #191919",
"_	c #00FF00",
":	c #091205",
"<	c #182114",
"[	c #0B0B0B",
"}	c #030701",
"|	c #081104",
"1	c #131B0E",
"2	c #BCBCBC",
"3	c #008000",
"4	c #088604",
"5	c #087B04",
"6	c #000A00",
"7	c #0A150A",
"8	c #007500",
"9	c #006A00",
"0	c #001500",
"a	c #101A10",
"b	c #0E0E0E",
"c	c #090E09",
"d	c #DADADA",
"e	c #BABABA",
"f	c #B5B5B5",
"g	c #D9D9D9",
"h	c #181818",
"i	c #C7C7C7",
"j	c #8A8A8A",
"k	c #757575",
"l	c #0D0D0D",
"m	c #878787",
"n	c #888888",
"o	c #151515",
"p	c #707070",
"q	c #909090",
"r	c #7D7D7D",
"                        ",
"  .......+@.........@@  ",
" .#######$%&#######*=-@ ",
" .#;===;#>##==;===;,,'@ ",
" .#######)#!#######&#'@ ",
" .#;===;#$##=;=====;#~@ ",
" .#######{###########]^ ",
" .#;===;#{#/;=====;,#~@ ",
" .###*(##{#!#*(,*###*'@ ",
" .#=,++,,{#,,,++,,=,#'@ ",
" .##+_:<.@#[++}_+####'@ ",
" +#+____|@#1_____+,,2'@ ",
" ++344356@#7533343+##'@ ",
" .#+33336@#738339+###'@ ",
" .##+30a.@#b+c03+####'@ ",
" .##*+.##{####.+##&##'@ ",
" .####+*d{#e=,+,;==;,'@ ",
" .#;====;{####*##&###'@ ",
" .#######{##;======;,'@ ",
" .#;===;#{####*#####f'@ ",
" .#####g=hi,eeeeee,,jk@ ",
" lmn~'''-opqr'''''''k-@ ",
"  l^@@@@@+@l@@@@@@@@@@  ",
"                        "};
