/* XPM */ 
static const unsigned char * toggle_myimenu_xpm[] = {
"24 24 5 1",
" 	c None",
"!	c black",
"#	c white",
"$	c #008000",
"%	c #0099FF",
"                        ",
" !!!!!!!!!!!!!!!!!!!!!! ",
" !######!#############! ",
" !#$$$$#!#$$$$$$$$$$$#! ",
" !######!#############! ",
" !#$$$$#!#$$$$$$$$$$$#! ",
" !######!#############! ",
" !#$$$$#!#$$$$$$$$$$$#! ",
" !######!#############! ",
" !#$$$$#!#$$$$$$$$$$$#! ",
" !######!#############! ",
" !#$$$$#!#$$$$$$$$$$$#! ",
" !######!#############! ",
" !######!#$$$$$$$$$$$#! ",
" !!!!!!!!#############! ",
" !%%%%%%!#$$$$$$$$$$$#! ",
" !%%%%%%!#############! ",
" !%%%%%%!#$$$$$$$$$$$#! ",
" !%%%%%%!#############! ",
" !%%%%%%!#$$$$$$$$$$$#! ",
" !%%%%%%!#############! ",
" !%%%%%%!#############! ",
" !!!!!!!!!!!!!!!!!!!!!! ",
"                        "};