/* XPM */ 
static const unsigned char * which_blocks_xpm[] = {
"24 24 14 1",
" 	c None",
"!	c black",
"#	c #D2EEFF",
"$	c #CC9900",
"%	c #DF6161",
"&	c #FF0000",
"'	c #EE3131",
"(	c #FC0A0A",
")	c #F61D1D",
"*	c #EC3A3A",
"+	c #E15C5C",
",	c #616161",
"-	c #99FF66",
".	c #7CCF63",
"                        ",
" !!!!!!!!!!!!!!!!!!!!!! ",
" !####################! ",
" !!$$$$$$$$$!!!!!#####! ",
" !!$$$$$$$$$!!!!!#####! ",
" !%&%'%###############! ",
" !'&&&&###############! ",
" !####################! ",
" !##%()*+&&#!!!!!!!!!!! ",
" !##&%&&&&&#!!!!!!!!!!! ",
" !####################! ",
" !#####%&%&&#!!!!!!,!!! ",
" !#####%&&&&#!!!!!!!!!! ",
" !####################! ",
" !########%&&&&##,!!!!! ",
" !########&&&&&##,!!!!! ",
" !####################! ",
" !###########&&&&#,!!,! ",
" !###########&%&&#,!!,! ",
" !####################! ",
" !-.-----------.!!!!,-! ",
" !--------------!!!!,-! ",
" !!!!!!!!!!!!!!!!!!!!!! ",
"                        "};