/* XPM */
static char * which_procs_xpm[] = {
"24 24 46 1",
" 	c None",
".	c #000000",
"+	c #FFFFFF",
"@	c #C0C0C0",
"#	c #0000FF",
"$	c #808080",
"%	c #FF0000",
"&	c #007F00",
"*	c #008000",
"=	c #00FF00",
"-	c #FF794B",
";	c #7FE54C",
">	c #66CC33",
",	c #8DF35A",
"'	c #89EF56",
")	c #82E84F",
"!	c #7EE44B",
"~	c #7BE148",
"{	c #77DD44",
"]	c #74DA41",
"^	c #71D73E",
"/	c #6FD53C",
"(	c #6CD239",
"_	c #6AD037",
":	c #68CE35",
"<	c #67CD34",
"[	c #FEFFFE",
"}	c #FCFFFB",
"|	c #080E05",
"1	c #F6FFF1",
"2	c #F2FFEB",
"3	c #EDFFE4",
"4	c #E8FFDC",
"5	c #E2FFD4",
"6	c #DCFFCA",
"7	c #D5FFC0",
"8	c #CEFFB5",
"9	c #C7FFAA",
"0	c #BFFF9F",
"a	c #B8FF94",
"b	c #B0FF88",
"c	c #A9FF7D",
"d	c #A1FF72",
"e	c #9BFF68",
"f	c #8CBF74",
"g	c #3F3F3F",
"                        ",
" ...................... ",
" .+++++++++++++++++++@. ",
" ..#########.++++++++$. ",
" .+++.+++++++++++++++$. ",
" .+++.+%%%....&**&..+$. ",
" .+++.+++++++++++++++$. ",
" .+++.+..%%**&......+$. ",
" .+++.+++++++++++++++$. ",
" .+++.+.%....&=&...++$. ",
" .+++.+++++++++++++++$. ",
" ..##########..++++++$. ",
" .+++.+++++++++++++++$. ",
" .+++.+...***.....--+$. ",
" .+++.+++++++++++++++$. ",
" .;>>.,'>)!~{]^/(_:<>$. ",
" .+[}|1234567890abcdef. ",
" ..##########.+++++++$. ",
" .+++.+++++++++++++++$. ",
" .+++.+---..........+$. ",
" .+++.++++++++++++++@$. ",
" .@$@.@@$$$$$$$$$$$$$$g ",
" ......g............... ",
"                        "};
