/* XPM */ 
static const unsigned char * xref_xpm[] = {
"24 24 19 1",
" 	c None",
"!	c black",
"#	c #007FD4",
"$	c #008CE9",
"%	c #008BE7",
"&	c #0099FF",
"'	c #17A2FF",
"(	c #15A1FF",
")	c #1594E9",
"*	c #D0ECFF",
"+	c #D4EEFF",
",	c #2AAAFF",
"-	c #BFE5FF",
".	c #E9F6FF",
"0	c #D4E1E9",
"1	c #2EABFF",
"2	c #3FB2FF",
"3	c #BFD8E9",
"4	c #2A9DE9",
"                        ",
" #$$$$$$$$$$$$$$$$$$$#  ",
"%&&&&&&&&&&&&&&&&&&&&&# ",
"&&&&&&&&&&&&&&&&&&&&&&$ ",
"&&&&&&&&&&&&&&&&&&&&&&$ ",
"&&&&&&&&&&&&&&&&&&&&&&$ ",
"&&&&&&&&&&&&&&&&&&&&&&$ ",
"'(&((&((((&&(((((&(((() ",
"*+,+-,-.+-,(-.+++,-.++0 ",
"1+,+,&,+,,-(,+,2-(,+,23 ",
"'-2-(&(+,,-((+2-,&(+2-4 ",
"&,-,&&(.++,&(.+.(&(.+.) ",
"&,-,&&(+2-,&(+2-(&(+2-) ",
"'-2-(&(+(,-((+(((&(+(($ ",
"1+,+,&,+,(+,,+,,-(,+,&$ ",
"*+,+-,-.-,+++.+++,-.-($ ",
"'(&((&(((&(((((((&(((&$ ",
"&&&&&&&&&&&&&&&&&&&&&&$ ",
"&&&&&&&&&&&&&&&&&&&&&&$ ",
"&&&&&&&&&&&&&&&&&&&&&&$ ",
"&&&&&&&&&&&&&&&&&&&&&&$ ",
"%&&&&&&&&&&&&&&&&&&&&&# ",
" #$$$$$$$$$$$$$$$$$$$#  ",
"                        "};